<svg width="22" height="19" viewBox="0 0 22 19" fill="none" xmlns="http://www.w3.org/2000/svg">
<g id="fa:shopping-cart" clip-path="url(#clip0_2_5028)">
<path id="Vector" d="M8.46154 17.2727C8.46154 17.7405 8.29407 18.1454 7.95913 18.4872C7.6242 18.8291 7.22756 19 6.76923 19C6.3109 19 5.91426 18.8291 5.57933 18.4872C5.24439 18.1454 5.07692 17.7405 5.07692 17.2727C5.07692 16.8049 5.24439 16.4001 5.57933 16.0582C5.91426 15.7164 6.3109 15.5455 6.76923 15.5455C7.22756 15.5455 7.6242 15.7164 7.95913 16.0582C8.29407 16.4001 8.46154 16.8049 8.46154 17.2727ZM20.3077 17.2727C20.3077 17.7405 20.1402 18.1454 19.8053 18.4872C19.4704 18.8291 19.0737 19 18.6154 19C18.1571 19 17.7604 18.8291 17.4255 18.4872C17.0905 18.1454 16.9231 17.7405 16.9231 17.2727C16.9231 16.8049 17.0905 16.4001 17.4255 16.0582C17.7604 15.7164 18.1571 15.5455 18.6154 15.5455C19.0737 15.5455 19.4704 15.7164 19.8053 16.0582C20.1402 16.4001 20.3077 16.8049 20.3077 17.2727ZM22 2.59091V9.5C22 9.71591 21.9273 9.90708 21.7819 10.0735C21.6364 10.2399 21.4579 10.3366 21.2464 10.3636L7.44351 12.0099C7.55809 12.5497 7.61538 12.8646 7.61538 12.9545C7.61538 13.0985 7.50962 13.3864 7.29808 13.8182H19.4615C19.6907 13.8182 19.889 13.9036 20.0565 14.0746C20.224 14.2455 20.3077 14.4479 20.3077 14.6818C20.3077 14.9157 20.224 15.1181 20.0565 15.2891C19.889 15.46 19.6907 15.5455 19.4615 15.5455H5.92308C5.69391 15.5455 5.49559 15.46 5.32812 15.2891C5.16066 15.1181 5.07692 14.9157 5.07692 14.6818C5.07692 14.5829 5.11218 14.4412 5.18269 14.2567C5.25321 14.0723 5.32372 13.9104 5.39423 13.771C5.46474 13.6315 5.5595 13.4516 5.67849 13.2312C5.79748 13.0108 5.86579 12.8781 5.88341 12.8331L3.54327 1.72727H0.846154C0.616987 1.72727 0.41867 1.64181 0.251202 1.47088C0.083734 1.29995 0 1.09754 0 0.863636C0 0.629735 0.083734 0.42732 0.251202 0.256392C0.41867 0.085464 0.616987 0 0.846154 0H4.23077C4.37179 0 4.4974 0.0292377 4.60757 0.0877131C4.71775 0.146188 4.80369 0.215909 4.86538 0.296875C4.92708 0.377841 4.98438 0.488045 5.03726 0.627486C5.09014 0.766927 5.1254 0.883878 5.14303 0.978338C5.16066 1.0728 5.1849 1.20549 5.21575 1.37642C5.24659 1.54735 5.26643 1.6643 5.27524 1.72727H21.1538C21.383 1.72727 21.5813 1.81274 21.7488 1.98366C21.9163 2.15459 22 2.35701 22 2.59091Z" fill="#5380EA"/>
</g>
<defs>
<clipPath id="clip0_2_5028">
<rect width="22" height="19" fill="white"/>
</clipPath>
</defs>
</svg>
