<svg width="36" height="36" viewBox="0 0 36 36" fill="none" xmlns="http://www.w3.org/2000/svg">
<g id="fluent:app-folder-48-filled">
<path id="Vector" d="M11.625 9C10.9288 9 10.2611 9.27656 9.76884 9.76884C9.27656 10.2611 9 10.9288 9 11.625V14.625C9 15.3212 9.27656 15.9889 9.76884 16.4812C10.2611 16.9734 10.9288 17.25 11.625 17.25H14.625C15.3212 17.25 15.9889 16.9734 16.4812 16.4812C16.9734 15.9889 17.25 15.3212 17.25 14.625V11.625C17.25 10.9288 16.9734 10.2611 16.4812 9.76884C15.9889 9.27656 15.3212 9 14.625 9H11.625ZM11.625 18.75C10.9288 18.75 10.2611 19.0266 9.76884 19.5188C9.27656 20.0111 9 20.6788 9 21.375V24.375C9 25.0712 9.27656 25.7389 9.76884 26.2312C10.2611 26.7234 10.9288 27 11.625 27H14.625C15.3212 27 15.9889 26.7234 16.4812 26.2312C16.9734 25.7389 17.25 25.0712 17.25 24.375V21.375C17.25 20.6788 16.9734 20.0111 16.4812 19.5188C15.9889 19.0266 15.3212 18.75 14.625 18.75H11.625ZM21.375 9C20.6788 9 20.0111 9.27656 19.5188 9.76884C19.0266 10.2611 18.75 10.9288 18.75 11.625V14.625C18.75 15.3212 19.0266 15.9889 19.5188 16.4812C20.0111 16.9734 20.6788 17.25 21.375 17.25H24.375C25.0712 17.25 25.7389 16.9734 26.2312 16.4812C26.7234 15.9889 27 15.3212 27 14.625V11.625C27 10.9288 26.7234 10.2611 26.2312 9.76884C25.7389 9.27656 25.0712 9 24.375 9H21.375ZM21.375 18.75C20.6788 18.75 20.0111 19.0266 19.5188 19.5188C19.0266 20.0111 18.75 20.6788 18.75 21.375V24.375C18.75 25.0712 19.0266 25.7389 19.5188 26.2312C20.0111 26.7234 20.6788 27 21.375 27H24.375C25.0712 27 25.7389 26.7234 26.2312 26.2312C26.7234 25.7389 27 25.0712 27 24.375V21.375C27 20.6788 26.7234 20.0111 26.2312 19.5188C25.7389 19.0266 25.0712 18.75 24.375 18.75H21.375ZM4.5 9.1875C4.5 7.9443 4.99386 6.75201 5.87294 5.87294C6.75201 4.99386 7.9443 4.5 9.1875 4.5H26.8125C28.0557 4.5 29.248 4.99386 30.1271 5.87294C31.0061 6.75201 31.5 7.9443 31.5 9.1875V26.8125C31.5 28.0557 31.0061 29.248 30.1271 30.1271C29.248 31.0061 28.0557 31.5 26.8125 31.5H9.1875C7.9443 31.5 6.75201 31.0061 5.87294 30.1271C4.99386 29.248 4.5 28.0557 4.5 26.8125V9.1875ZM9.1875 6.375C8.44158 6.375 7.72621 6.67132 7.19876 7.19876C6.67132 7.72621 6.375 8.44158 6.375 9.1875V26.8125C6.375 27.5584 6.67132 28.2738 7.19876 28.8012C7.72621 29.3287 8.44158 29.625 9.1875 29.625H26.8125C27.5584 29.625 28.2738 29.3287 28.8012 28.8012C29.3287 28.2738 29.625 27.5584 29.625 26.8125V9.1875C29.625 8.44158 29.3287 7.72621 28.8012 7.19876C28.2738 6.67132 27.5584 6.375 26.8125 6.375H9.1875Z" fill="#5380EA"/>
</g>
</svg>
