<svg width="78" height="78" viewBox="0 0 78 78" fill="none" xmlns="http://www.w3.org/2000/svg">
<g id="Frame" clip-path="url(#clip0_2_5090)">
<g id="Group">
<path id="Vector" d="M78.5767 33.1847L65.3712 16.0305C64.8825 15.396 63.991 15.2395 63.315 15.6693L54.7891 21.0916H43.6693C43.5255 21.0916 43.3822 21.1223 43.2438 21.1627L34.6221 23.6445L25.676 21.1976L16.9833 15.6693C16.3188 15.2468 15.4436 15.39 14.9494 16.0028L0.343197 34.0948C-0.181698 34.7449 -0.095018 35.6942 0.538228 36.239L8.19376 42.8272L15.0619 52.0827C13.0533 54.2227 13.0924 57.5978 15.1823 59.6883C16.1087 60.6141 17.2867 61.1372 18.4984 61.2588C18.4563 61.5333 18.4346 61.812 18.4346 62.0949C18.4346 63.5552 19.0035 64.9282 20.0358 65.9606C21.0687 66.9935 22.4418 67.5623 23.9021 67.5623C23.922 67.5623 23.9412 67.5611 23.9605 67.5605C23.9599 67.5979 23.9581 67.6346 23.9581 67.6719C23.9581 69.1322 24.5269 70.5053 25.5592 71.5382C26.5922 72.5705 27.9652 73.1394 29.4255 73.1394C29.7139 73.1394 29.9992 73.1159 30.2791 73.0725C30.3977 74.2885 30.922 75.4719 31.8514 76.4013C32.9168 77.4673 34.3169 78.0001 35.7171 78.0001C37.1172 78.0001 38.5173 77.4673 39.5833 76.4013L40.4194 75.5652L40.7704 75.8481C41.8274 76.872 43.1998 77.3837 44.5723 77.3837C45.9724 77.3837 47.3725 76.8509 48.438 75.7849C49.5257 74.6972 50.0584 73.2616 50.0361 71.8331C51.4639 71.8548 52.9002 71.3227 53.9879 70.2356C55.0744 69.1485 55.6071 67.714 55.586 66.2862C57.0734 66.3097 58.4844 65.7385 59.5372 64.6857C60.6249 63.5979 61.1576 62.1623 61.1354 60.7339C62.5644 60.7556 63.9994 60.2234 65.0871 59.1357C66.9435 57.2793 67.1825 54.4099 65.8058 52.2916L70.8206 41.7889L78.36 35.3011C78.983 34.7648 79.0781 33.8354 78.5767 33.1847ZM16.4885 19.0215L22.7391 22.9962L9.14182 39.5617L3.69302 34.8719L16.4885 19.0215ZM17.3704 54.1438L19.2569 52.2573C19.3141 52.2001 19.3743 52.1459 19.4357 52.0954C19.8047 51.7944 20.2513 51.615 20.7244 51.5723C20.7377 51.5711 20.7515 51.5711 20.7648 51.5705C20.8322 51.5651 20.8996 51.5615 20.9676 51.5621C21.6141 51.5711 22.2148 51.8353 22.6603 52.3055C23.5343 53.2294 23.4874 54.7391 22.5555 55.6709L20.7262 57.5002C19.801 58.4254 18.2956 58.4254 17.3704 57.5002C16.4452 56.5745 16.4452 55.069 17.3704 54.1438ZM22.2239 63.7725C21.7754 63.3247 21.5286 62.7287 21.5286 62.0949C21.5286 61.461 21.7754 60.8651 22.2239 60.4167L25.8819 56.7586C26.5826 56.058 27.6841 55.866 28.5798 56.2927C29.5032 56.7328 30.0227 57.735 29.8872 58.7433C29.815 59.2814 29.5646 59.7882 29.1805 60.1729L25.5803 63.7725C25.1319 64.221 24.5359 64.4678 23.9021 64.4678C23.2682 64.4678 22.6723 64.221 22.2239 63.7725ZM27.7473 69.3495C27.2989 68.9017 27.0521 68.3057 27.0521 67.6719C27.0521 67.0381 27.2989 66.4421 27.7473 65.9937L31.4047 62.3357C32.1542 61.5868 33.3562 61.4255 34.2736 61.9594C35.1115 62.447 35.5503 63.4041 35.4065 64.3576C35.3276 64.8819 35.0784 65.3749 34.7034 65.7499L31.1038 69.3495C30.6553 69.798 30.0594 70.0448 29.4255 70.0448C28.7917 70.0448 28.1958 69.798 27.7473 69.3495ZM34.0388 74.2132C33.1137 73.288 33.1137 71.7826 34.0388 70.8574L35.9253 68.9709C35.9825 68.9137 36.0421 68.8601 36.1035 68.8096C36.1053 68.8084 36.1065 68.8072 36.1077 68.806C36.4147 68.5568 36.7753 68.39 37.1599 68.3172C37.1689 68.316 37.178 68.3148 37.187 68.3136C37.2532 68.3015 37.3206 68.2919 37.3881 68.2859C37.4151 68.2835 37.4422 68.2835 37.4699 68.2817C37.5253 68.2787 37.5801 68.275 37.6361 68.2757C38.2819 68.2847 38.8833 68.5483 39.3287 69.0191C39.3835 69.0768 39.4347 69.137 39.4816 69.199C40.1931 70.129 40.0974 71.5105 39.2144 72.3942L37.3947 74.2138C36.4695 75.139 34.964 75.1384 34.0388 74.2132ZM62.8991 56.9477C61.9739 57.8734 60.4684 57.8728 59.5432 56.9477C59.5095 56.9139 59.474 56.8826 59.4379 56.8532L49.4901 46.8007C48.8888 46.1933 47.9094 46.1885 47.3021 46.7898C46.6947 47.3906 46.6899 48.3699 47.2906 48.9773L57.3461 59.1375C57.3473 59.1387 57.3485 59.1399 57.3497 59.1411C58.2749 60.0663 58.2749 61.5724 57.3497 62.4976C56.9013 62.946 56.3054 63.1928 55.6715 63.1928C55.0371 63.1928 54.4411 62.946 53.9933 62.4976L47.2666 55.701C46.6658 55.0937 45.6865 55.0889 45.0791 55.6896C44.4717 56.2909 44.4669 57.2703 45.0677 57.8777L51.6915 64.5701C51.7252 64.6122 51.7613 64.6525 51.7998 64.6911C52.725 65.6163 52.725 67.1223 51.7998 68.0475C50.874 68.9727 49.368 68.9721 48.4428 68.0469L44.7715 64.3371C44.1702 63.7298 43.1908 63.7243 42.5834 64.3257C41.9761 64.9264 41.9713 65.9058 42.572 66.5132L46.1409 70.1188C46.1746 70.1609 46.2108 70.2019 46.2499 70.2404C47.1751 71.1656 47.1751 72.6716 46.2499 73.5968C45.3247 74.5226 43.8192 74.522 42.894 73.5968C42.7875 73.4903 42.6623 73.4084 42.5431 73.3169C42.442 73.2399 42.4155 73.1863 42.4661 73.0635C42.5172 72.9389 42.5937 72.8264 42.6448 72.7011C42.7014 72.5615 42.7472 72.4176 42.7917 72.2732C43.0289 71.5087 43.0987 70.6864 42.9922 69.8931C42.7875 68.3708 41.9502 66.9971 40.6813 66.1279C39.9957 65.659 39.2023 65.3514 38.3801 65.2358C38.7785 63.4782 38.3 61.5724 37.0552 60.2571C36.0307 59.1749 34.6468 58.5675 33.1582 58.547C33.104 58.5464 33.0498 58.5464 32.9951 58.547C33.0282 57.1264 32.5117 55.7149 31.5323 54.6801C30.5072 53.5978 29.1234 52.9905 27.6354 52.97C27.1929 52.964 26.7463 53.0109 26.3153 53.1103C26.1311 51.8287 25.4852 50.6429 24.507 49.7948C23.5349 48.9532 22.3124 48.4861 21.0104 48.4681C19.6397 48.4482 18.2932 48.9538 17.2753 49.873L11.295 41.8148L25.602 24.3849L30.1617 25.6321L24.2067 36.1402C23.4868 37.4109 23.305 38.8857 23.6944 40.2931C24.0839 41.701 24.9976 42.8724 26.2683 43.5923C26.3478 43.6375 26.4279 43.6802 26.5091 43.7211C26.5151 43.7241 26.5212 43.7272 26.5278 43.7302C26.7415 43.8367 26.9612 43.9282 27.1839 44.0052C28.221 44.3646 29.3413 44.4037 30.4218 44.1052C31.8291 43.7157 33.0005 42.8014 33.7204 41.5313L37.5903 34.7022L44.5 35.1922L62.8997 53.5912C63.8242 54.517 63.8242 56.0225 62.8991 56.9477ZM63.5401 49.8561L46.2794 32.596C46.2469 32.5629 46.2126 32.5316 46.177 32.5021C45.9284 32.295 45.6202 32.1698 45.2952 32.1469L36.8349 31.5468C36.2498 31.5065 35.6683 31.8177 35.3794 32.3275L31.0285 40.0059C30.7161 40.5573 30.2075 40.954 29.5965 41.1231C28.9861 41.2923 28.3456 41.2128 27.7937 40.9004C27.2423 40.588 26.8456 40.0794 26.6765 39.4684C26.5073 38.8574 26.5862 38.217 26.8992 37.6656L32.7073 27.4151L35.0609 26.7379C35.0766 26.7331 35.0916 26.727 35.1073 26.7222L43.8915 24.1856H54.5049L67.7549 41.0292L63.5401 49.8561ZM69.7817 38.601L57.5285 23.0161L63.7821 19.039L75.2317 33.9112L69.7817 38.601Z" fill="#5380EA"/>
<path id="Vector_2" d="M47.7987 18.1866C48.1948 18.1866 48.5909 18.0355 48.893 17.7334L59.4608 7.16562C60.0651 6.56127 60.0651 5.58191 59.4608 4.97756C58.8564 4.3732 57.8771 4.3732 57.2727 4.97756L46.705 15.5453C46.1006 16.1496 46.1006 17.129 46.705 17.7334C47.0071 18.0355 47.4032 18.1866 47.7987 18.1866Z" fill="#5380EA"/>
<path id="Vector_3" d="M30.0051 17.7334C30.3073 18.0355 30.7034 18.1866 31.0995 18.1866C31.4949 18.1866 31.891 18.0355 32.1932 17.7334C32.7976 17.129 32.7976 16.1496 32.1932 15.5453L21.6255 4.97756C21.0211 4.3732 20.0417 4.3732 19.4374 4.97756C18.833 5.58191 18.833 6.56127 19.4374 7.16562L30.0051 17.7334Z" fill="#5380EA"/>
<path id="Vector_4" d="M39.4491 18.1866C40.3033 18.1866 40.9961 17.4937 40.9961 16.6396V7.89392C40.9961 7.03976 40.3033 6.34692 39.4491 6.34692C38.5949 6.34692 37.9021 7.03976 37.9021 7.89392V16.6396C37.9021 17.4937 38.5949 18.1866 39.4491 18.1866Z" fill="#5380EA"/>
<path id="Vector_5" d="M38.0213 2.28683C38.2669 2.88215 38.879 3.27281 39.5249 3.2391C40.163 3.20599 40.7234 2.775 40.9208 2.16764C41.1189 1.55546 40.9034 0.857809 40.3905 0.467749C39.8674 0.0692619 39.1379 0.0469899 38.5907 0.408759C37.9803 0.812061 37.7438 1.61506 38.0213 2.28683Z" fill="#5380EA"/>
</g>
</g>
<defs>
<clipPath id="clip0_2_5090">
<rect width="78" height="78" fill="white"/>
</clipPath>
</defs>
</svg>
