<svg width="72" height="72" viewBox="0 0 72 72" fill="none" xmlns="http://www.w3.org/2000/svg">
<g id="Frame" clip-path="url(#clip0_2_5078)">
<g id="Group">
<g id="Group_2">
<g id="Group_3">
<path id="Vector" d="M69.8896 67.7814H67.6396V31.9232C67.6396 30.9949 67.0489 30.1933 66.205 29.9402L46.5465 23.3593V72H69.8896C71.071 72 71.9989 71.0718 71.9989 69.8908C71.9988 68.7094 71.0708 67.7814 69.8896 67.7814ZM63.4209 67.7814H59.2023V59.3442H54.9837V67.7814H50.7651V57.2348C50.7651 56.0534 51.6931 55.1255 52.8745 55.1255H61.3117C62.4931 55.1255 63.4211 56.0534 63.4211 57.2348V67.7814H63.4209ZM61.3117 50.907H52.8745C51.6931 50.907 50.7651 49.9787 50.7651 48.7976C50.7651 47.6162 51.6931 46.6882 52.8745 46.6882H61.3117C62.4931 46.6882 63.4211 47.6162 63.4211 48.7976C63.4209 49.9787 62.493 50.907 61.3117 50.907ZM61.3117 42.4698H52.8745C51.6931 42.4698 50.7651 41.5415 50.7651 40.3604C50.7651 39.179 51.6931 38.251 52.8745 38.251H61.3117C62.4931 38.251 63.4211 39.179 63.4211 40.3604C63.4209 41.5415 62.493 42.4698 61.3117 42.4698Z" fill="#5380EA"/>
</g>
</g>
<g id="Group_4">
<g id="Group_5">
<path id="Vector_2" d="M40.9787 12.7845L7.22982 0.128709C5.79558 -0.377541 4.36121 0.677146 4.36121 2.11166V67.7814H2.11121C0.929815 67.7814 0.00183105 68.7094 0.00183105 69.8908C0.00183105 71.0719 0.929815 72 2.11121 72H42.3287C42.3287 58.3026 42.3287 49.2064 42.3287 14.7675C42.3287 13.8814 41.7803 13.0798 40.9787 12.7845ZM21.2355 67.7814H12.7983V57.2348C12.7983 56.0534 13.7263 55.1255 14.9077 55.1255H21.2356V67.7814H21.2355ZM19.1263 50.907H14.9077C13.7263 50.907 12.7983 49.9787 12.7983 48.7976C12.7983 47.6162 13.7263 46.6882 14.9077 46.6882H19.1263C20.3077 46.6882 21.2356 47.6162 21.2356 48.7976C21.2355 49.9787 20.3077 50.907 19.1263 50.907ZM19.1263 42.4698H14.9077C13.7263 42.4698 12.7983 41.5415 12.7983 40.3604C12.7983 39.179 13.7263 38.251 14.9077 38.251H19.1263C20.3077 38.251 21.2356 39.179 21.2356 40.3604C21.2355 41.5415 20.3077 42.4698 19.1263 42.4698ZM19.1263 34.0326H14.9077C13.7263 34.0326 12.7983 33.1043 12.7983 31.9232C12.7983 30.7418 13.7263 29.8138 14.9077 29.8138H19.1263C20.3077 29.8138 21.2356 30.7418 21.2356 31.9232C21.2355 33.1043 20.3077 34.0326 19.1263 34.0326ZM19.1263 25.5953H14.9077C13.7263 25.5953 12.7983 24.6671 12.7983 23.486C12.7983 22.3046 13.7263 21.3766 14.9077 21.3766H19.1263C20.3077 21.3766 21.2356 22.3046 21.2356 23.486C21.2355 24.6671 20.3077 25.5953 19.1263 25.5953ZM33.8915 67.7814H25.4543V55.1256H31.7822C32.9636 55.1256 33.8916 56.0536 33.8916 57.235V67.7814H33.8915ZM31.7821 50.907H27.5635C26.3821 50.907 25.4541 49.9787 25.4541 48.7976C25.4541 47.6162 26.3821 46.6882 27.5635 46.6882H31.7821C32.9635 46.6882 33.8915 47.6162 33.8915 48.7976C33.8915 49.9787 32.9635 50.907 31.7821 50.907ZM31.7821 42.4698H27.5635C26.3821 42.4698 25.4541 41.5415 25.4541 40.3604C25.4541 39.179 26.3821 38.251 27.5635 38.251H31.7821C32.9635 38.251 33.8915 39.179 33.8915 40.3604C33.8915 41.5415 32.9635 42.4698 31.7821 42.4698ZM31.7821 34.0326H27.5635C26.3821 34.0326 25.4541 33.1043 25.4541 31.9232C25.4541 30.7418 26.3821 29.8138 27.5635 29.8138H31.7821C32.9635 29.8138 33.8915 30.7418 33.8915 31.9232C33.8915 33.1043 32.9635 34.0326 31.7821 34.0326ZM31.7821 25.5953H27.5635C26.3821 25.5953 25.4541 24.6671 25.4541 23.486C25.4541 22.3046 26.3821 21.3766 27.5635 21.3766H31.7821C32.9635 21.3766 33.8915 22.3046 33.8915 23.486C33.8915 24.6671 32.9635 25.5953 31.7821 25.5953Z" fill="#5380EA"/>
</g>
</g>
</g>
</g>
<defs>
<clipPath id="clip0_2_5078">
<rect width="72" height="72" fill="white"/>
</clipPath>
</defs>
</svg>
