<svg width="72" height="72" viewBox="0 0 72 72" fill="none" xmlns="http://www.w3.org/2000/svg">
<g id="Frame" clip-path="url(#clip0_2_5070)">
<g id="Group">
<path id="Vector" d="M45.167 21.5151C42.7851 19.0679 39.5793 17.7204 36.1406 17.7204C29.0418 17.7204 23.2613 23.4503 23.2207 30.5096V30.5854C23.2416 35.6006 25.3141 38.4379 26.9813 40.7203C28.2733 42.4885 29.1264 43.6564 29.1264 45.6257V49.1034C29.1264 52.1125 31.5615 54.5608 34.5547 54.5608H37.7259C40.7378 54.5608 43.1878 52.1125 43.1878 49.1034V45.6257C43.1878 43.6207 44.0497 42.3819 45.2422 40.6675C46.8248 38.3928 48.7925 35.5655 48.8122 30.5854V30.5096H48.8117C48.793 27.1038 47.5005 23.9123 45.167 21.5151ZM34.7508 48.9364V46.1244H37.5633V48.9364H34.7508ZM40.6258 37.4551C39.982 38.3802 39.3008 39.3602 38.7444 40.4994H33.5259C32.9359 39.3371 32.2091 38.3412 31.5231 37.4024C30.0926 35.4441 28.8561 33.7516 28.8451 30.5524C28.8633 26.5754 32.129 23.3448 36.1406 23.3448C40.0814 23.3448 43.1713 26.5078 43.1878 30.5524C43.1774 33.7868 41.9941 35.488 40.6258 37.4551ZM69.1479 36.1428C69.9983 33.9681 70.6701 31.7812 71.1496 29.6054C72.162 25.0109 72.2708 20.6922 71.4732 16.7695C70.6174 12.5585 68.759 8.99943 65.9504 6.19078C63.1412 3.38157 59.5821 1.52324 55.3711 0.667402C51.449 -0.130205 47.1302 -0.0214407 42.5352 0.99095C40.3594 1.4705 38.1725 2.14232 35.9978 2.99266C33.8241 2.14342 31.639 1.4705 29.4648 0.99095C24.8703 -0.0214407 20.5516 -0.130205 16.6283 0.667402C12.4178 1.52324 8.85881 3.38157 6.0496 6.19078C3.24095 8.99943 1.38261 12.5585 0.526777 16.7695C-0.27083 20.6922 -0.162066 25.0109 0.850325 29.6054C1.32933 31.7796 2.00279 33.9648 2.85148 36.1384C2.00169 38.3132 1.32988 40.5 0.850325 42.6758C-0.162066 47.2703 -0.27083 51.589 0.526777 55.5117C1.38261 59.7228 3.24095 63.2818 6.0496 66.0904C8.85881 68.8996 12.4178 70.7574 16.6283 71.6138C18.3554 71.9648 20.1588 72.1406 22.0292 72.1406C24.4072 72.1406 26.8929 71.8566 29.4642 71.2897C31.6401 70.8102 33.8269 70.1389 36.0022 69.2886C38.1758 70.1378 40.361 70.8107 42.5352 71.2897C45.1071 71.8566 47.5922 72.1406 49.9702 72.1406C51.8401 72.1406 53.6446 71.9648 55.3711 71.6138C59.5821 70.7574 63.1412 68.8991 65.9498 66.091C68.759 63.2818 70.6168 59.7228 71.4732 55.5117C72.2708 51.589 72.162 47.2703 71.1491 42.6758C70.6701 40.5016 69.9972 38.3165 69.1479 36.1428ZM43.7453 6.48411C45.9388 6.00072 48.0328 5.76176 50.0004 5.76176C54.9289 5.76176 59.0652 7.25975 61.9728 10.1678C66.0421 14.2366 67.35 20.7098 65.6565 28.3947C65.6279 28.5254 65.5977 28.6556 65.5669 28.7864C62.9928 24.3874 59.7156 20.1522 55.8517 16.2889C51.9884 12.425 47.7532 9.14775 43.3542 6.57365C43.485 6.54289 43.6152 6.51268 43.7453 6.48411ZM28.2541 65.7977C26.0607 66.2811 23.9672 66.5195 21.999 66.5195C17.0711 66.5195 12.9347 65.0215 10.0267 62.1134C5.95787 58.0446 4.6494 51.5715 6.34294 43.8865C6.3715 43.7558 6.40227 43.6256 6.43248 43.4949C9.00657 47.8938 12.2838 52.129 16.1477 55.9924C20.0116 59.8562 24.2468 63.1335 28.6452 65.7081C28.515 65.7383 28.3848 65.7685 28.2541 65.7977ZM61.9728 62.1134C57.904 66.1827 51.4303 67.4912 43.7453 65.7977C43.6157 65.7685 43.4855 65.7372 43.3553 65.707C45.5581 64.4178 47.7197 62.9527 49.8142 61.3257C48.1086 60.4264 46.7463 58.962 45.98 57.1811C42.7698 59.6343 39.4052 61.6597 35.9989 63.1933C30.4321 60.6879 24.9758 56.8663 20.1247 52.0153C15.2743 47.1648 11.4527 41.7085 8.94725 36.1417C10.4947 32.7041 12.5436 29.3088 15.0271 26.0716C13.2215 25.3663 11.7175 24.0562 10.7638 22.3912C9.15654 24.4654 7.70909 26.605 6.43358 28.7847C6.40336 28.6545 6.3715 28.5249 6.34294 28.3947C4.6494 20.7098 5.95787 14.2366 10.0267 10.1678C12.9347 7.25975 17.0705 5.76176 21.999 5.76176C23.9667 5.76176 26.0612 6.00072 28.2541 6.48411C28.3837 6.51213 28.5139 6.54399 28.6435 6.5742C26.471 7.84587 24.3374 9.28837 22.2698 10.8896C23.9342 11.8438 25.2438 13.3484 25.9486 15.1545C29.1802 12.6771 32.5695 10.6326 36.0005 9.08787C41.5679 11.5939 47.0237 15.4154 51.8747 20.2659C56.7257 25.1169 60.5467 30.5727 63.0527 36.1401C61.5218 39.5398 59.5008 42.8983 57.0536 46.103C58.8351 46.8688 60.3001 48.2305 61.1999 49.9361C62.8215 47.8476 64.281 45.6921 65.5658 43.4965C65.5961 43.6267 65.6279 43.7569 65.6565 43.8865C67.35 51.5715 66.0421 58.0446 61.9728 62.1134ZM56.5461 53.8577C56.5461 55.4112 55.287 56.6702 53.7336 56.6702C52.1806 56.6702 50.9216 55.4112 50.9216 53.8577C50.9216 52.3048 52.1806 51.0458 53.7336 51.0458C55.287 51.0458 56.5461 52.3048 56.5461 53.8577ZM20.8301 18.2829C20.8301 19.8358 19.571 21.0948 18.0181 21.0948C16.4646 21.0948 15.2056 19.8358 15.2056 18.2829C15.2056 16.7294 16.4646 15.4704 18.0181 15.4704C19.571 15.4704 20.8301 16.7294 20.8301 18.2829Z" fill="#5380EA"/>
<path id="Vector_2" d="M45.167 21.5151C42.7851 19.0679 39.5793 17.7204 36.1406 17.7204C29.0418 17.7204 23.2613 23.4503 23.2207 30.5096V30.5854C23.2416 35.6006 25.3141 38.4379 26.9813 40.7203C28.2733 42.4885 29.1264 43.6564 29.1264 45.6257V49.1034C29.1264 52.1125 31.5615 54.5608 34.5547 54.5608H37.7259C40.7378 54.5608 43.1878 52.1125 43.1878 49.1034V45.6257C43.1878 43.6207 44.0497 42.3819 45.2422 40.6675C46.8248 38.3928 48.7925 35.5655 48.8122 30.5854V30.5096H48.8117C48.793 27.1038 47.5005 23.9123 45.167 21.5151ZM34.7508 48.9364V46.1244H37.5633V48.9364H34.7508ZM40.6258 37.4551C39.982 38.3802 39.3008 39.3602 38.7444 40.4994H33.5259C32.9359 39.3371 32.2091 38.3412 31.5231 37.4024C30.0926 35.4441 28.8561 33.7516 28.8451 30.5524C28.8633 26.5754 32.129 23.3448 36.1406 23.3448C40.0814 23.3448 43.1713 26.5078 43.1878 30.5524C43.1774 33.7868 41.9941 35.488 40.6258 37.4551ZM69.1479 36.1428C69.9983 33.9681 70.6701 31.7812 71.1496 29.6054C72.162 25.0109 72.2708 20.6922 71.4732 16.7695C70.6174 12.5585 68.759 8.99943 65.9504 6.19078C63.1412 3.38157 59.5821 1.52324 55.3711 0.667402C51.449 -0.130205 47.1302 -0.0214407 42.5352 0.99095C40.3594 1.4705 38.1725 2.14232 35.9978 2.99266C33.8241 2.14342 31.639 1.4705 29.4648 0.99095C24.8703 -0.0214407 20.5516 -0.130205 16.6283 0.667402C12.4178 1.52324 8.85881 3.38157 6.0496 6.19078C3.24095 8.99943 1.38261 12.5585 0.526777 16.7695C-0.27083 20.6922 -0.162066 25.0109 0.850325 29.6054C1.32933 31.7796 2.00279 33.9648 2.85148 36.1384C2.00169 38.3132 1.32988 40.5 0.850325 42.6758C-0.162066 47.2703 -0.27083 51.589 0.526777 55.5117C1.38261 59.7228 3.24095 63.2818 6.0496 66.0904C8.85881 68.8996 12.4178 70.7574 16.6283 71.6138C18.3554 71.9648 20.1588 72.1406 22.0292 72.1406C24.4072 72.1406 26.8929 71.8566 29.4642 71.2897C31.6401 70.8102 33.8269 70.1389 36.0022 69.2886C38.1758 70.1378 40.361 70.8107 42.5352 71.2897C45.1071 71.8566 47.5922 72.1406 49.9702 72.1406C51.8401 72.1406 53.6446 71.9648 55.3711 71.6138C59.5821 70.7574 63.1412 68.8991 65.9498 66.091C68.759 63.2818 70.6168 59.7228 71.4732 55.5117C72.2708 51.589 72.162 47.2703 71.1491 42.6758C70.6701 40.5016 69.9972 38.3165 69.1479 36.1428ZM43.7453 6.48411C45.9388 6.00072 48.0328 5.76176 50.0004 5.76176C54.9289 5.76176 59.0652 7.25975 61.9728 10.1678C66.0421 14.2366 67.35 20.7098 65.6565 28.3947C65.6279 28.5254 65.5977 28.6556 65.5669 28.7864C62.9928 24.3874 59.7156 20.1522 55.8517 16.2889C51.9884 12.425 47.7532 9.14775 43.3542 6.57365C43.485 6.54289 43.6152 6.51268 43.7453 6.48411ZM28.2541 65.7977C26.0607 66.2811 23.9672 66.5195 21.999 66.5195C17.0711 66.5195 12.9347 65.0215 10.0267 62.1134C5.95787 58.0446 4.6494 51.5715 6.34294 43.8865C6.3715 43.7558 6.40227 43.6256 6.43248 43.4949C9.00657 47.8938 12.2838 52.129 16.1477 55.9924C20.0116 59.8562 24.2468 63.1335 28.6452 65.7081C28.515 65.7383 28.3848 65.7685 28.2541 65.7977ZM61.9728 62.1134C57.904 66.1827 51.4303 67.4912 43.7453 65.7977C43.6157 65.7685 43.4855 65.7372 43.3553 65.707C45.5581 64.4178 47.7197 62.9527 49.8142 61.3257C48.1086 60.4264 46.7463 58.962 45.98 57.1811C42.7698 59.6343 39.4052 61.6597 35.9989 63.1933C30.4321 60.6879 24.9758 56.8663 20.1247 52.0153C15.2743 47.1648 11.4527 41.7085 8.94725 36.1417C10.4947 32.7041 12.5436 29.3088 15.0271 26.0716C13.2215 25.3663 11.7175 24.0562 10.7638 22.3912C9.15654 24.4654 7.70909 26.605 6.43358 28.7847C6.40336 28.6545 6.3715 28.5249 6.34294 28.3947C4.6494 20.7098 5.95787 14.2366 10.0267 10.1678C12.9347 7.25975 17.0705 5.76176 21.999 5.76176C23.9667 5.76176 26.0612 6.00072 28.2541 6.48411C28.3837 6.51213 28.5139 6.54399 28.6435 6.5742C26.471 7.84587 24.3374 9.28837 22.2698 10.8896C23.9342 11.8438 25.2438 13.3484 25.9486 15.1545C29.1802 12.6771 32.5695 10.6326 36.0005 9.08787C41.5679 11.5939 47.0237 15.4154 51.8747 20.2659C56.7257 25.1169 60.5467 30.5727 63.0527 36.1401C61.5218 39.5398 59.5008 42.8983 57.0536 46.103C58.8351 46.8688 60.3001 48.2305 61.1999 49.9361C62.8215 47.8476 64.281 45.6921 65.5658 43.4965C65.5961 43.6267 65.6279 43.7569 65.6565 43.8865C67.35 51.5715 66.0421 58.0446 61.9728 62.1134ZM56.5461 53.8577C56.5461 55.4112 55.287 56.6702 53.7336 56.6702C52.1806 56.6702 50.9216 55.4112 50.9216 53.8577C50.9216 52.3048 52.1806 51.0458 53.7336 51.0458C55.287 51.0458 56.5461 52.3048 56.5461 53.8577ZM20.8301 18.2829C20.8301 19.8358 19.571 21.0948 18.0181 21.0948C16.4646 21.0948 15.2056 19.8358 15.2056 18.2829C15.2056 16.7294 16.4646 15.4704 18.0181 15.4704C19.571 15.4704 20.8301 16.7294 20.8301 18.2829Z" fill="#5380EA"/>
</g>
</g>
<defs>
<clipPath id="clip0_2_5070">
<rect width="72" height="72" fill="white"/>
</clipPath>
</defs>
</svg>
