<svg width="89" height="89" viewBox="0 0 89 89" fill="none" xmlns="http://www.w3.org/2000/svg">
<g id="carbon:carbon-for-ibm-product">
<path id="Vector" d="M62.6032 35.2913L45.9157 25.4178C45.487 25.1639 44.9978 25.0302 44.4996 25.0306C44.0014 25.0311 43.5125 25.1658 43.0843 25.4206L26.3968 35.2941C25.9808 35.5395 25.6359 35.8892 25.3964 36.3087C25.1569 36.7282 25.0311 37.2029 25.0313 37.6859V56.8766C25.0313 57.8611 25.5513 58.7706 26.3968 59.2684L43.0843 69.1419C43.5119 69.3986 44.0013 69.5341 44.5 69.5341C44.9987 69.5341 45.4881 69.3986 45.9157 69.1419L62.6032 59.2684C63.0192 59.023 63.3641 58.6733 63.6035 58.2538C63.8431 57.8343 63.9689 57.3596 63.9688 56.8766V37.6859C63.9689 37.2025 63.843 36.7274 63.6035 36.3075C63.364 35.8876 63.0193 35.5373 62.6032 35.2913ZM58.4062 55.2913L44.5 63.5182L30.5938 55.2913V39.2713L44.5 31.0443L58.4062 39.2713V55.2913Z" fill="#5380EA"/>
<path id="Vector_2" d="M16.6875 56.1367V30.7884L33.9312 20.5979L31.1027 15.8086L12.4906 26.8085C12.0745 27.0545 11.7297 27.4048 11.4902 27.8247C11.2508 28.2446 11.1249 28.7197 11.125 29.2031V56.1367C9.50289 56.7085 8.09745 57.7682 7.10153 59.1705C6.10561 60.5727 5.56801 62.2488 5.5625 63.9688C5.5625 68.5689 9.30606 72.3125 13.9062 72.3125C18.5064 72.3125 22.25 68.5689 22.25 63.9688C22.2445 62.2488 21.7069 60.5727 20.711 59.1705C19.7151 57.7682 18.3096 56.7085 16.6875 56.1367ZM13.9062 66.75C13.1901 66.718 12.514 66.4109 12.0185 65.8929C11.5231 65.3748 11.2466 64.6856 11.2466 63.9688C11.2466 63.2519 11.5231 62.5627 12.0185 62.0446C12.514 61.5266 13.1901 61.2195 13.9062 61.1875C14.6224 61.2195 15.2985 61.5266 15.794 62.0446C16.2894 62.5627 16.5659 63.2519 16.5659 63.9688C16.5659 64.6856 16.2894 65.3748 15.794 65.8929C15.2985 66.4109 14.6224 66.718 13.9062 66.75ZM75.0938 55.625C70.4936 55.625 66.75 59.3686 66.75 63.9688C66.75 64.9505 66.9502 65.8795 67.2645 66.7556L44.5 80.2057L26.6889 69.6814L23.8603 74.4707L43.0843 85.8294C43.5125 86.0842 44.0014 86.2189 44.4996 86.2194C44.9978 86.2199 45.487 86.0861 45.9157 85.8322L70.8357 71.1054C72.0872 71.8536 73.5335 72.3125 75.0938 72.3125C79.6939 72.3125 83.4375 68.5689 83.4375 63.9688C83.4375 59.3686 79.6939 55.625 75.0938 55.625ZM75.0938 66.75C74.3776 66.718 73.7015 66.4109 73.206 65.8929C72.7106 65.3748 72.4341 64.6856 72.4341 63.9688C72.4341 63.2519 72.7106 62.5627 73.206 62.0446C73.7015 61.5266 74.3776 61.2195 75.0938 61.1875C75.8099 61.2195 76.486 61.5266 76.9815 62.0446C77.4769 62.5627 77.7534 63.2519 77.7534 63.9688C77.7534 64.6856 77.4769 65.3748 76.9815 65.8929C76.486 66.4109 75.8099 66.718 75.0938 66.75ZM44.5 19.4688C46.5331 19.4688 48.3715 18.7095 49.8205 17.4996L72.3125 30.7912V50.0625H77.875V29.2031C77.8751 28.7197 77.7492 28.2446 77.5098 27.8247C77.2703 27.4048 76.9255 27.0545 76.5094 26.8085L52.6824 12.7298C52.7826 12.2097 52.8438 11.6757 52.8438 11.125C52.8438 6.52481 49.1002 2.78125 44.5 2.78125C39.8998 2.78125 36.1562 6.52481 36.1562 11.125C36.1562 15.7252 39.8998 19.4688 44.5 19.4688ZM44.5 8.34375C45.0509 8.3432 45.5895 8.50608 46.0478 8.81179C46.506 9.11749 46.8633 9.55226 47.0744 10.0611C47.2854 10.5699 47.3408 11.1299 47.2335 11.6702C47.1261 12.2105 46.8609 12.7069 46.4714 13.0964C46.0819 13.4859 45.5855 13.7511 45.0452 13.8585C44.5049 13.9658 43.9449 13.9104 43.4361 13.6994C42.9273 13.4883 42.4925 13.131 42.1868 12.6728C41.8811 12.2145 41.7182 11.6759 41.7188 11.125C41.7188 9.58975 42.9675 8.34375 44.5 8.34375Z" fill="#5380EA"/>
</g>
</svg>
