<svg width="29" height="29" viewBox="0 0 29 29" fill="none" xmlns="http://www.w3.org/2000/svg">
<g id="Frame" clip-path="url(#clip0_2_5048)">
<g id="Group">
<path id="Vector" d="M28.4622 24.0074L23.2271 18.9274C22.8879 18.5983 22.4403 18.4219 21.9658 18.428C21.8084 18.4304 21.6546 18.4534 21.5072 18.495L19.1438 16.2016C21.0143 13.3724 21.3925 9.77611 20.1545 6.62026L20.9654 5.35655C21.1704 5.40617 21.3841 5.43313 21.6041 5.43313C23.102 5.43313 24.3206 4.21451 24.3206 2.71665C24.3206 1.21884 23.102 0.000277705 21.6041 0.000277705C20.1063 0.000277705 18.8877 1.21884 18.8877 2.71665C18.8877 3.33652 19.0969 3.90814 19.4476 4.3658L19.1962 4.75764C18.9956 4.44889 18.7771 4.14762 18.5398 3.85558C16.7812 1.69185 14.2853 0.3425 11.5119 0.0559554C8.73831 -0.230533 6.01938 0.580108 3.85566 2.33863C1.69187 4.09709 0.342409 6.59302 0.0559206 9.36648C-0.200152 11.8453 0.420913 14.2803 1.81116 16.3146C0.757301 16.6885 0.00029952 17.6949 0.00029952 18.8753C0.00029952 20.3731 1.21887 21.5917 2.71667 21.5917C3.97925 21.5917 5.04335 20.7258 5.34649 19.5567C6.56971 20.2402 7.93067 20.674 9.36639 20.8224C9.73184 20.8602 10.0962 20.8789 10.4587 20.8789C12.4829 20.8788 14.442 20.2949 16.1361 19.187L18.4783 21.4359C18.378 21.6654 18.3267 21.9158 18.3306 22.1742C18.3377 22.6484 18.5285 23.0908 18.8676 23.4199L24.1028 28.5C24.4466 28.8335 24.8921 28.9995 25.3371 28.9995C25.8001 28.9995 26.2626 28.8198 26.6097 28.4622L28.4998 26.5143C29.1805 25.8128 29.1637 24.6883 28.4622 24.0074ZM21.6041 1.81278C22.1025 1.81278 22.5081 2.21827 22.5081 2.71671C22.5081 3.2152 22.1025 3.62075 21.6041 3.62075C21.1056 3.62075 20.7001 3.2152 20.7001 2.71671C20.7001 2.21827 21.1056 1.81278 21.6041 1.81278ZM20.0745 19.6302L19.6598 20.0576L17.5757 18.0565C17.7252 17.9166 17.8701 17.7734 18.0097 17.6266L20.0745 19.6302ZM1.85879 9.55272C2.09555 7.26081 3.21063 5.1983 4.99872 3.74513C6.55124 2.48329 8.44944 1.81215 10.4229 1.81215C10.7223 1.81215 11.0237 1.82762 11.3255 1.85883C13.6174 2.09564 15.68 3.21073 17.1332 4.99876C17.5111 5.46378 17.8323 5.95661 18.0981 6.46886L14.9181 11.4241C14.648 11.3338 14.3595 11.2842 14.0596 11.2842C13.7332 11.2842 13.4202 11.3422 13.13 11.4481L11.3475 9.53244C11.5251 9.17158 11.6252 8.76604 11.6252 8.33744C11.6252 6.83963 10.4066 5.62107 8.90874 5.62107C7.41093 5.62107 6.19237 6.83963 6.19237 8.33744C6.19237 8.97957 6.41683 9.56999 6.79072 10.0355L3.41867 15.4508C2.19314 13.7389 1.64056 11.665 1.85879 9.55272ZM14.0596 13.0966C14.5581 13.0966 14.9636 13.5021 14.9636 14.0005C14.9636 14.499 14.5581 14.9046 14.0596 14.9046C13.5612 14.9046 13.1557 14.499 13.1557 14.0005C13.1557 13.5021 13.5612 13.0966 14.0596 13.0966ZM8.00487 8.33738C8.00487 7.83894 8.41036 7.43345 8.90879 7.43345C9.40729 7.43345 9.81283 7.83894 9.81283 8.33738C9.81283 8.83582 9.40729 9.24137 8.90879 9.24137C8.4103 9.24142 8.00487 8.83588 8.00487 8.33738ZM2.71673 19.7793C2.21829 19.7793 1.8128 19.3738 1.8128 18.8753C1.8128 18.3768 2.21829 17.9713 2.71673 17.9713C3.21516 17.9713 3.62071 18.3768 3.62071 18.8753C3.62071 19.3738 3.21516 19.7793 2.71673 19.7793ZM10.4553 19.0662C10.156 19.0662 9.85458 19.0507 9.55268 19.0195C7.71419 18.8296 6.02358 18.074 4.67644 16.8596L8.33061 10.9913C8.51701 11.0318 8.71032 11.0538 8.90874 11.0538C9.317 11.0538 9.7042 10.9627 10.052 10.8007L11.7305 12.6045C11.4849 13.0128 11.3433 13.4904 11.3433 14.0005C11.3433 15.4984 12.5618 16.717 14.0596 16.717C15.5575 16.717 16.7761 15.4984 16.7761 14.0005C16.7761 13.4656 16.62 12.9667 16.3518 12.5457L18.8703 8.62126C19.5274 11.6933 18.48 15.0197 15.8795 17.1332C14.327 18.395 12.4288 19.0662 10.4553 19.0662ZM25.3366 27.1716L20.1582 22.1467L21.9932 20.2556L27.1715 25.2805L25.3366 27.1716Z" fill="#5380EA"/>
</g>
</g>
<defs>
<clipPath id="clip0_2_5048">
<rect width="29" height="29" fill="white"/>
</clipPath>
</defs>
</svg>
